<?xml version="1.0" encoding="UTF-8"?>
<svg id="Capa_1" xmlns="http://www.w3.org/2000/svg" viewBox="0 0 795.9 140.01">
  <defs>
    <style>
      .cls-1 {
        fill: #ffa400;
      }

      .cls-2 {
        fill: #4a4b9a;
      }
    </style>
  </defs>
  <path class="cls-2" d="M115.86,112.77c7.81-3.61,13.38-8.74,16.72-15.42h27.04c-3.61,13.49-12.15,23.97-25.64,31.44-13.49,7.48-30.64,11.22-51.47,11.22-25.1,0-45.13-5.24-60.08-15.72C7.48,113.81,0,98.29,0,77.72c0-13.75,3.5-25.3,10.51-34.65,7.01-9.34,16.59-16.32,28.74-20.93,12.15-4.61,25.9-6.91,41.26-6.91,24.83,0,44.53,5.34,59.08,16.02,14.55,10.68,21.83,28.24,21.83,52.67H27.24c1.33,11.89,6.64,20.56,15.92,26.04,9.28,5.47,22.46,8.21,39.55,8.21,14.29,0,25.34-1.8,33.15-5.41ZM28.84,63.5h103.94c-2.54-9.21-8.18-15.99-16.92-20.33-8.75-4.34-20.53-6.51-35.35-6.51-28.98,0-46.2,8.95-51.67,26.84Z"/>
  <path class="cls-2" d="M325.27,30.06c11.75,9.88,17.75,25.77,18.03,47.67v58.28h-25.03v-52.67c0-15.62-7.52-45.66-49.47-45.66-18.96,0-56.26,10.53-56.26,51.87v46.46h-25.03V19.24h25.03l-.57,30.66h1.7c17.01-29.75,45.72-34.66,61.74-34.66,21.49,0,38.12,4.94,49.87,14.82Z"/>
  <path class="cls-2" d="M484.24,112.77c7.81-3.61,13.38-8.74,16.72-15.42h27.04c-3.61,13.49-12.15,23.97-25.64,31.44-13.49,7.48-30.64,11.22-51.47,11.22-25.1,0-45.13-5.24-60.08-15.72-14.95-10.48-22.43-26-22.43-46.56,0-13.75,3.5-25.3,10.51-34.65,7.01-9.34,16.59-16.32,28.74-20.93,12.15-4.61,25.9-6.91,41.26-6.91,24.83,0,44.53,5.34,59.08,16.02,14.55,10.68,21.83,28.24,21.83,52.67h-134.18c1.33,11.89,6.64,20.56,15.92,26.04,9.28,5.47,22.46,8.21,39.55,8.21,14.29,0,25.34-1.8,33.15-5.41ZM397.23,63.5h103.94c-2.54-9.21-8.18-15.99-16.92-20.33-8.75-4.34-20.53-6.51-35.35-6.51-28.98,0-46.2,8.95-51.67,26.84Z"/>
  <path class="cls-2" d="M778.9,50.19h-40.67v35.95c0,8.95.73,15.59,2.2,19.93,1.47,4.34,4.21,7.38,8.21,9.11,4,1.74,10.15,2.6,18.43,2.6s16.54-.8,28.83-2.4v21.43c-14.15,2.13-26.24,3.2-36.25,3.2-12.55,0-22.26-1.54-29.14-4.61-6.88-3.07-11.79-8.31-14.72-15.72-2.94-7.41-4.41-17.93-4.41-31.54v-37.95h-90.66l22.86-22.86h67.8V0h26.85v27.33h50.88l-10.21,22.86Z"/>
  <polygon class="cls-1" points="630.33 76.12 630.23 76.12 630.23 110.62 657.25 137.03 692.63 137.03 630.33 76.12"/>
  <polygon class="cls-2" points="630.23 76.12 630.23 76.12 568.31 14.2 532.95 14.2 594.86 76.11 594.85 76.12 532.55 137.03 567.93 137.03 630.23 76.12 630.23 76.12 630.23 76.12"/>
</svg>