<?xml version="1.0" encoding="UTF-8"?>
<svg id="Capa_2" data-name="Capa 2" xmlns="http://www.w3.org/2000/svg" xmlns:xlink="http://www.w3.org/1999/xlink" viewBox="0 0 345.18 60.72">
  <defs>
    <style>
      .cls-1 {
        filter: url(#drop-shadow-1);
      }

      .cls-2 {
        fill: #fff;
      }

      .cls-2, .cls-3 {
        stroke-width: 0px;
      }

      .cls-3 {
        fill: #fa9d3d;
      }
    </style>
    <filter id="drop-shadow-1" filterUnits="userSpaceOnUse">
      <feOffset dx="7" dy="7"/>
      <feGaussianBlur result="blur" stdDeviation="5"/>
      <feFlood flood-color="#000" flood-opacity=".75"/>
      <feComposite in2="blur" operator="in"/>
      <feComposite in="SourceGraphic"/>
    </filter>
  </defs>
  <g id="Capa_1-2" data-name="Capa 1">
    <g class="cls-1">
      <path class="cls-2" d="M50.25,48.91c3.39-1.56,5.8-3.79,7.25-6.69h11.73c-1.56,5.85-5.27,10.39-11.12,13.64-5.85,3.24-13.29,4.86-22.32,4.86-10.89,0-19.57-2.27-26.06-6.82C3.24,49.36,0,42.63,0,33.71c0-5.96,1.52-10.97,4.56-15.03,3.04-4.05,7.19-7.08,12.46-9.08,5.27-2,11.23-3,17.89-3,10.77,0,19.31,2.32,25.62,6.95,6.31,4.63,9.47,12.25,9.47,22.84H11.81c.58,5.16,2.88,8.92,6.9,11.29,4.02,2.37,9.74,3.56,17.15,3.56,6.2,0,10.99-.78,14.38-2.35ZM12.51,27.54h45.08c-1.1-4-3.55-6.93-7.34-8.82-3.79-1.88-8.9-2.82-15.33-2.82-12.57,0-20.04,3.88-22.41,11.64Z"/>
      <path class="cls-2" d="M141.07,13.04c5.09,4.29,7.7,11.18,7.82,20.67v25.28h-10.86v-22.84c0-6.78-3.26-19.8-21.45-19.8-8.22,0-24.4,4.57-24.4,22.5v20.15h-10.86V8.34h10.86l-.25,13.3h.74c7.38-12.9,19.83-15.03,26.78-15.03,9.32,0,16.53,2.14,21.63,6.43Z"/>
      <path class="cls-2" d="M210.01,48.91c3.39-1.56,5.8-3.79,7.25-6.69h11.73c-1.56,5.85-5.27,10.39-11.12,13.64-5.85,3.24-13.29,4.86-22.32,4.86-10.89,0-19.57-2.27-26.06-6.82-6.49-4.55-9.73-11.28-9.73-20.19,0-5.96,1.52-10.97,4.56-15.03,3.04-4.05,7.19-7.08,12.46-9.08,5.27-2,11.23-3,17.89-3,10.77,0,19.31,2.32,25.62,6.95,6.31,4.63,9.47,12.25,9.47,22.84h-58.19c.58,5.16,2.88,8.92,6.9,11.29,4.02,2.37,9.74,3.56,17.15,3.56,6.2,0,10.99-.78,14.38-2.35ZM172.27,27.54h45.08c-1.1-4-3.55-6.93-7.34-8.82-3.79-1.88-8.9-2.82-15.33-2.82-12.57,0-20.04,3.88-22.41,11.64Z"/>
      <path class="cls-2" d="M337.8,21.77h-17.64v15.59c0,3.88.32,6.76.96,8.64.64,1.88,1.82,3.2,3.56,3.95,1.74.75,4.4,1.13,7.99,1.13s7.17-.35,12.5-1.04v9.29c-6.14.93-11.38,1.39-15.72,1.39-5.44,0-9.66-.67-12.64-2-2.98-1.33-5.11-3.6-6.38-6.82-1.27-3.21-1.91-7.77-1.91-13.68v-16.46h-39.32l9.91-9.91h29.4V0h11.64v11.85h22.07l-4.43,9.91Z"/>
      <polygon class="cls-3" points="273.37 33.01 273.33 33.01 273.33 47.98 285.04 59.43 300.39 59.43 273.37 33.01"/>
      <polygon class="cls-2" points="273.33 33.01 273.33 33.01 246.47 6.16 231.14 6.16 257.99 33.01 257.98 33.01 230.96 59.43 246.31 59.43 273.33 33.01 273.33 33.01 273.33 33.01"/>
    </g>
  </g>
</svg>